<svg width="24" height="24" viewBox="0 0 24 24" fill="none" xmlns="http://www.w3.org/2000/svg">
<g clip-path="url(#clip0_58_68)">
<path d="M3.516 20.484C2.36988 19.377 1.45569 18.0529 0.826781 16.5889C0.197873 15.1248 -0.133162 13.5502 -0.147008 11.9568C-0.160854 10.3635 0.142767 8.78331 0.746137 7.30855C1.34951 5.83379 2.24055 4.49397 3.36726 3.36726C4.49397 2.24055 5.83379 1.34951 7.30855 0.746137C8.78331 0.142767 10.3635 -0.160854 11.9568 -0.147008C13.5502 -0.133162 15.1248 0.197873 16.5889 0.826781C18.0529 1.45569 19.377 2.36988 20.484 3.516C22.6699 5.77922 23.8794 8.81045 23.8521 11.9568C23.8247 15.1032 22.5627 18.1129 20.3378 20.3378C18.1129 22.5627 15.1032 23.8247 11.9568 23.8521C8.81045 23.8794 5.77922 22.6699 3.516 20.484ZM5.208 18.792C7.00935 20.5933 9.4525 21.6053 12 21.6053C14.5475 21.6053 16.9906 20.5933 18.792 18.792C20.5933 16.9906 21.6053 14.5475 21.6053 12C21.6053 9.4525 20.5933 7.00935 18.792 5.208C16.9906 3.40665 14.5475 2.39466 12 2.39466C9.4525 2.39466 7.00935 3.40665 5.208 5.208C3.40665 7.00935 2.39466 9.4525 2.39466 12C2.39466 14.5475 3.40665 16.9906 5.208 18.792ZM17.088 8.604L13.692 12L17.088 15.396L15.396 17.088L12 13.692L8.604 17.088L6.912 15.396L10.308 12L6.912 8.604L8.604 6.912L12 10.308L15.396 6.912L17.088 8.604Z" fill="#333333"/>
</g>
<defs>
<clipPath id="clip0_58_68">
<rect width="24" height="24" fill="white"/>
</clipPath>
</defs>
</svg>
